<svg width="82" height="32" viewBox="28 0 82 32" fill="none" xmlns="http://www.w3.org/2000/svg">
<path d="M36.9239 10.2792H36.8861V10.3457C36.4153 10.2497 35.9177 10.1955 35.395 10.1955C34.8722 10.1955 34.3745 10.2497 33.9037 10.3457V0.861591L28.2031 0.198563V25.5817H33.9037V15.7702C34.2763 15.5142 34.7819 15.283 35.395 15.283C36.0093 15.283 36.5131 15.5119 36.8861 15.7696C36.8989 15.7784 36.9115 15.7872 36.9239 15.796V25.5817H42.5868V0.861591L36.9239 0.202955V10.2792Z" fill="white"/>
<path d="M51.1196 9.15513C51.9879 9.15513 52.4409 9.77151 52.5541 13.3615H49.685C49.7605 10.1341 50.1002 9.15513 51.1196 9.15513ZM52.9694 17.7854C52.7052 20.8313 52.1389 21.883 51.0818 21.883C49.9115 21.883 49.685 20.6138 49.6473 16.48H57.8017V15.1746C57.8017 7.70467 55.159 5.38397 51.0818 5.38397C45.7965 5.38397 44.2109 9.66283 44.2109 15.8636C44.2109 21.7016 45.7965 25.9805 51.0818 25.9805C55.6724 25.9805 57.6792 22.9317 58.0891 18.3776L53.0731 17.7942L52.9694 17.7854Z" fill="white"/>
<path d="M59.7656 25.5817H65.2396V0.835246L59.7656 0.198471V25.5817Z" fill="white"/>
<path d="M74.3357 21.1939C73.3541 21.1939 72.8256 20.3238 72.8256 15.6822C72.8256 11.077 73.3541 10.1704 74.3357 10.1704C75.3173 10.1704 75.657 11.1495 75.657 15.6822C75.657 20.2149 75.3173 21.1939 74.3357 21.1939ZM76.9028 5.38388C74.5622 5.38388 73.4296 7.59581 73.0144 9.55398H72.8256L72.5236 5.78282H67.3516V32H72.8256V21.8467H73.0144C73.4674 23.8048 74.5622 25.9805 76.9028 25.9805C79.923 25.9805 81.2066 23.0071 81.2066 15.6822C81.2066 8.39367 79.923 5.38388 76.9028 5.38388Z" fill="white"/>
<path d="M89.3618 9.15513C90.2301 9.15513 90.6831 9.77151 90.7963 13.3615H87.9272C88.0027 10.1341 88.3424 9.15513 89.3618 9.15513ZM89.324 21.883C88.1537 21.883 87.9272 20.6138 87.8894 16.48H96.0439V15.1746C96.0439 7.70467 93.4012 5.38397 89.324 5.38397C84.0387 5.38397 82.4531 9.66283 82.4531 15.8636C82.4531 21.7016 84.0387 25.9805 89.324 25.9805C93.9123 25.9805 95.9193 22.9348 96.3306 18.3845L91.2112 17.789C90.9469 20.8321 90.3806 21.883 89.324 21.883Z" fill="white"/>
<path d="M108.463 11.6572L109.973 6.21799C109.142 5.56521 108.501 5.3839 107.632 5.3839C105.669 5.3839 104.084 7.30575 103.593 9.66276H103.404L103.102 5.78274H97.9297V25.5816H103.404V15.247C103.404 12.4548 104.612 10.9681 106.311 10.9681C107.028 10.9681 107.821 11.1857 108.463 11.6572Z" fill="white"/>
</svg>
